<?xml version="1.0" standalone="no"?><svg xmlns="http://www.w3.org/2000/svg" viewBox="0 0 1440 320"><path fill="#ffffff" fill-opacity="1" d="M0,288L6.2,277.3C12.3,267,25,245,37,234.7C49.2,224,62,224,74,234.7C86.2,245,98,267,111,277.3C123.1,288,135,288,148,240C160,192,172,96,185,101.3C196.9,107,209,213,222,229.3C233.8,245,246,171,258,144C270.8,117,283,139,295,154.7C307.7,171,320,181,332,170.7C344.6,160,357,128,369,101.3C381.5,75,394,53,406,80C418.5,107,431,181,443,202.7C455.4,224,468,192,480,186.7C492.3,181,505,203,517,218.7C529.2,235,542,245,554,213.3C566.2,181,578,107,591,85.3C603.1,64,615,96,628,90.7C640,85,652,43,665,21.3C676.9,0,689,0,702,48C713.8,96,726,192,738,240C750.8,288,763,288,775,293.3C787.7,299,800,309,812,309.3C824.6,309,837,299,849,293.3C861.5,288,874,288,886,266.7C898.5,245,911,203,923,202.7C935.4,203,948,245,960,250.7C972.3,256,985,224,997,224C1009.2,224,1022,256,1034,224C1046.2,192,1058,96,1071,53.3C1083.1,11,1095,21,1108,26.7C1120,32,1132,32,1145,64C1156.9,96,1169,160,1182,192C1193.8,224,1206,224,1218,192C1230.8,160,1243,96,1255,101.3C1267.7,107,1280,181,1292,192C1304.6,203,1317,149,1329,112C1341.5,75,1354,53,1366,69.3C1378.5,85,1391,139,1403,165.3C1415.4,192,1428,192,1434,192L1440,192L1440,320L1433.8,320C1427.7,320,1415,320,1403,320C1390.8,320,1378,320,1366,320C1353.8,320,1342,320,1329,320C1316.9,320,1305,320,1292,320C1280,320,1268,320,1255,320C1243.1,320,1231,320,1218,320C1206.2,320,1194,320,1182,320C1169.2,320,1157,320,1145,320C1132.3,320,1120,320,1108,320C1095.4,320,1083,320,1071,320C1058.5,320,1046,320,1034,320C1021.5,320,1009,320,997,320C984.6,320,972,320,960,320C947.7,320,935,320,923,320C910.8,320,898,320,886,320C873.8,320,862,320,849,320C836.9,320,825,320,812,320C800,320,788,320,775,320C763.1,320,751,320,738,320C726.2,320,714,320,702,320C689.2,320,677,320,665,320C652.3,320,640,320,628,320C615.4,320,603,320,591,320C578.5,320,566,320,554,320C541.5,320,529,320,517,320C504.6,320,492,320,480,320C467.7,320,455,320,443,320C430.8,320,418,320,406,320C393.8,320,382,320,369,320C356.9,320,345,320,332,320C320,320,308,320,295,320C283.1,320,271,320,258,320C246.2,320,234,320,222,320C209.2,320,197,320,185,320C172.3,320,160,320,148,320C135.4,320,123,320,111,320C98.5,320,86,320,74,320C61.5,320,49,320,37,320C24.6,320,12,320,6,320L0,320Z"></path></svg>